<svg width="400" height="400" viewBox="0 0 400 400" fill="none" xmlns="http://www.w3.org/2000/svg">
  <rect width="400" height="400" fill="#F3F4F6"/>
  <path d="M200 120C177.909 120 160 137.909 160 160C160 182.091 177.909 200 200 200C222.091 200 240 182.091 240 160C240 137.909 222.091 120 200 120ZM200 180C188.954 180 180 171.046 180 160C180 148.954 188.954 140 200 140C211.046 140 220 148.954 220 160C220 171.046 211.046 180 200 180Z" fill="#9CA3AF"/>
  <path d="M280 100H120C103.431 100 90 113.431 90 130V270C90 286.569 103.431 300 120 300H280C296.569 300 310 286.569 310 270V130C310 113.431 296.569 100 280 100ZM290 270C290 275.523 285.523 280 280 280H120C114.477 280 110 275.523 110 270V220L150 180L200 230L240 190L290 240V270ZM290 208.787L250 168.787L210 208.787L160 158.787L110 208.787V130C110 124.477 114.477 120 120 120H280C285.523 120 290 124.477 290 130V208.787Z" fill="#9CA3AF"/>
  <text x="200" y="340" font-family="Arial, sans-serif" font-size="16" fill="#6B7280" text-anchor="middle">Ürün Görseli</text>
</svg>

